<svg width="200" height="200" viewBox="0 0 200 200" fill="none" xmlns="http://www.w3.org/2000/svg">
<path d="M168.893 0H30.9415C13.8532 0 0 14.2027 0 31.8106V71.5116C0 74.3355 1.99087 76.0797 4.72833 75.2492L158.855 35.1329C162.837 34.0532 165.16 37.1262 163.998 41.1129L123.766 195.1C123.019 198.09 124.844 200 127.831 200H168.063C185.4 200 200 185.133 200 168.272V31.8106C200 14.2027 186.064 0 168.893 0Z" fill="#F7F7F4"/>
<path d="M0 93.0208V169.017C0 185.961 13.7702 199.998 30.9415 199.998H106.512C109.498 199.998 110.908 197.506 110.079 194.599L98.5483 152.822C98.0506 151.243 98.1336 149.831 98.9631 148.253L135.794 74.167C137.868 70.0142 132.891 66.9411 129.905 70.0973L35.9187 163.287C33.2642 166.111 29.0336 162.871 30.5268 159.134L48.1128 106.808C49.0253 103.818 47.781 100.911 44.214 100.247L5.14309 89.5325C2.07383 88.4527 0 90.1139 0 93.0208Z" fill="#F7F7F4"/>
</svg>
