<svg width="200" height="200" viewBox="0 0 200 200" fill="none" xmlns="http://www.w3.org/2000/svg">
<path d="M61.266 0.395353C52.4318 1.08827 44.1605 3.47019 36.0191 7.75764C15.6223 18.4113 2.32765 38.3761 0.422226 61.3292C-0.140742 67.9552 -0.140742 132.007 0.422226 138.676C2.84732 167.822 24.0669 192.075 52.605 198.224C59.5771 199.74 65.7265 200 100.241 200C134.452 200 140.428 199.783 147.487 198.224C172.734 192.768 192.697 172.846 198.37 147.468C199.929 140.409 200.146 133.783 199.929 95.802C199.713 56.3921 199.799 57.3015 197.201 48.2935C192.264 30.9705 179.966 15.9861 163.683 7.5411C155.628 3.38358 147.703 1.13159 138.219 0.352056C132.287 -0.124328 67.5886 -0.124338 61.266 0.395353ZM156.797 12.6514C179.446 17.6318 190.575 36.6005 186.808 63.6677C183.3 88.9593 168.013 116.763 144.195 141.275C124.578 161.456 101.973 176.354 80.1038 183.457C68.8445 187.138 63.6045 188.047 53.2546 188.047C46.3257 188.047 44.6801 187.917 41.1291 187.051C29.0903 184.063 21.0355 177.956 16.0121 167.952C2.54418 141.102 18.4805 95.802 54.5537 58.644C79.5841 32.876 110.547 15.4231 137.267 12.0884C141.64 11.5254 153.246 11.8719 156.797 12.6514Z" fill="#FCFCFC"/>
</svg>
