<svg width="189" height="191" viewBox="0 0 189 191" fill="none" xmlns="http://www.w3.org/2000/svg">
<path d="M93.2708 0C47.5077 0 0 33.2242 0 94.2702C0 138.974 30.5982 190.972 92.0629 190.972C144.268 192.187 188.957 154.371 188.957 98.322C190.165 62.5317 166.009 0 93.2708 0ZM8.05215 87.5174C9.79678 60.7759 40.395 13.1006 86.829 8.77875C95.0154 8.37357 114.206 9.58909 117.159 32.684C119.574 54.1581 102.531 88.5978 70.7247 107.101C48.7155 120.201 8.05215 128.98 8.05215 87.5174ZM168.424 136.138C157.956 152.615 135.41 178.141 104.275 182.058C93.2708 183.138 74.214 180.167 71.7984 160.313C68.8459 143.161 78.3743 114.664 103.068 94.2702C117.159 82.5202 132.458 73.0662 148.965 72.3909C157.956 71.8507 175.537 73.0662 180.1 94.8105C181.308 106.02 178.892 120.201 168.424 136.138Z" fill="#1C1C1C"/>
</svg>
