<svg width="216" height="170" viewBox="0 0 216 170" fill="none" xmlns="http://www.w3.org/2000/svg">
<path d="M214.86 35.8994C204.222 39.3184 168.887 52.8045 156.538 51.4749C150.649 50.7151 149.319 47.2961 150.839 41.0279C153.689 30.771 162.997 17.2849 172.686 1.7095C173.256 0.94972 173.066 0 171.736 0H168.887C168.317 0 167.937 0.379888 167.557 0.949721C160.718 9.30726 139.251 36.0894 128.042 39.1285C121.583 41.0279 113.034 42.1676 110.375 1.32961H105.245C103.916 20.8939 101.446 39.8883 91.9472 39.8883C82.0686 39.8883 67.2507 22.6034 55.4723 9.30726L47.8733 0.379888C47.6834 8.49116e-08 47.3034 0 46.9235 0H43.314C42.3641 0 42.1741 0.94972 42.7441 1.7095C52.6227 17.6648 65.3509 34.7598 65.3509 44.8268C66.4908 59.2626 38.7546 49.5754 6.83905 38.1788L0.949868 35.7095C0.569921 35.5196 0 35.7095 0 36.2793V40.4581C0 41.0279 0.189973 41.4078 0.759894 41.5978C6.64908 44.6369 41.6042 60.0224 41.4142 69.5196C41.0343 76.7374 22.2269 78.6369 0.949868 80.9162C0.379947 80.9162 0 81.486 0 82.0559V87.3743C0 88.1341 0.569921 88.7039 1.13984 88.7039C13.1082 89.4637 41.2243 91.1732 41.2243 98.9609C41.2243 105.989 20.1372 116.436 0.569921 126.503C0.189974 126.693 0 127.073 0 127.832V132.581C0 133.531 1.51979 133.151 2.08971 132.961C14.248 128.402 45.4037 116.436 58.3219 116.436C71.2401 116.436 66.6807 128.402 59.2718 141.888C53.7625 151.385 48.4433 159.743 42.5541 167.721C42.1741 168.67 42.3641 169.81 43.314 169.81H46.9235C47.3034 169.81 47.8733 169.43 48.0633 169.24C54.5224 160.693 77.3193 132.581 89.0976 129.352C100.686 126.123 102.396 143.978 104.485 168.67C104.485 169.43 105.055 170 105.625 170H109.045C109.805 170 110.375 169.43 110.375 168.67C112.084 144.737 115.884 128.972 123.673 128.972C132.602 128.972 143.24 140.369 157.678 156.324L167.747 168.67C167.937 169.43 168.697 169.81 169.456 169.81H171.736C173.066 169.81 173.446 168.67 172.686 167.721C164.327 155.944 149.509 133.341 149.699 122.704C149.699 115.676 157.488 114.726 175.726 119.095C186.554 121.754 201.562 126.693 214.48 132.581C215.24 132.961 216 133.341 216 132.201V128.402C216 127.832 215.62 127.073 215.24 127.073C204.222 122.324 173.636 107.888 173.636 99.3408C173.636 92.6927 193.963 90.7933 214.86 88.7039C215.43 88.7039 216 88.1341 216 87.5643V82.2458C216 81.486 215.43 80.9162 214.86 80.9162C201.752 80.1564 173.636 78.4469 173.636 71.0391C173.636 63.8212 194.153 53.1844 215.43 41.5978C216 41.4078 216 41.0279 216 40.4581V36.6592C216 36.0894 215.43 35.5196 214.86 35.8994ZM156.158 88.514C146.28 98.9609 131.652 109.788 107.905 109.788C87.3879 109.788 72.19 100.48 59.6517 88.514C57.9419 86.8045 56.9921 84.1453 59.6517 81.2961C69.7203 71.0391 84.3483 59.2626 107.335 59.0726C126.712 58.8827 141.72 67.0503 156.158 80.5363C158.818 82.8156 158.438 86.6145 156.158 88.514Z" fill="black"/>
<path d="M107.335 69.3296C99.9261 69.5196 92.1372 74.648 92.1372 84.7151C92.1372 92.3129 97.8364 100.291 107.715 100.291C116.644 100.291 122.723 93.8324 122.723 85.095C122.723 76.7374 116.454 69.5196 107.335 69.3296Z" fill="black"/>
</svg>
