<svg width="288" height="288" viewBox="0 0 288 288" fill="none" xmlns="http://www.w3.org/2000/svg">
<path d="M176.893 214.933C177.378 214.914 177.866 214.904 178.355 214.904C198.54 214.904 214.904 231.267 214.904 251.452C214.904 271.637 198.54 288 178.355 288C162.56 288 149.105 277.979 144 263.948C138.895 277.979 125.44 288 109.645 288C89.4596 288 73.0965 271.637 73.0965 251.452C73.0965 232.003 88.2877 216.103 107.452 214.969V214.904H176.893V214.933Z" fill="url(#paint0_linear_550_27)"/>
<path d="M176.893 73.0672C177.378 73.0863 177.866 73.0965 178.355 73.0965C198.54 73.0965 214.904 56.7333 214.904 36.5482C214.904 16.3632 198.54 0 178.355 0C162.56 0 149.105 10.0208 144 24.0519C138.895 10.0208 125.44 0 109.645 0C89.4596 0 73.0965 16.3632 73.0965 36.5482C73.0965 55.997 88.2877 71.8974 107.452 73.0315V73.0965H176.893V73.0672Z" fill="url(#paint1_linear_550_27)"/>
<path d="M214.933 176.893C214.914 177.378 214.904 177.866 214.904 178.355C214.904 198.54 231.267 214.904 251.452 214.904C271.637 214.904 288 198.54 288 178.355C288 162.56 277.979 149.105 263.948 144C277.979 138.895 288 125.44 288 109.645C288 89.4596 271.637 73.0965 251.452 73.0965C232.003 73.0965 216.103 88.2877 214.969 107.452H214.904V176.893H214.933Z" fill="url(#paint2_linear_550_27)"/>
<path d="M73.0672 176.893C73.0863 177.378 73.0965 177.866 73.0965 178.355C73.0965 198.54 56.7333 214.904 36.5482 214.904C16.3632 214.904 0 198.54 0 178.355C0 162.56 10.0208 149.105 24.0519 144C10.0208 138.895 0 125.44 0 109.645C0 89.4596 16.3632 73.0965 36.5482 73.0965C55.997 73.0965 71.8974 88.2877 73.0315 107.452H73.0965V176.893H73.0672Z" fill="url(#paint3_linear_550_27)"/>
<defs>
<linearGradient id="paint0_linear_550_27" x1="0" y1="0" x2="288" y2="288" gradientUnits="userSpaceOnUse">
<stop stop-color="#63F656"/>
<stop offset="1" stop-color="#0CE2D1"/>
</linearGradient>
<linearGradient id="paint1_linear_550_27" x1="0" y1="0" x2="288" y2="288" gradientUnits="userSpaceOnUse">
<stop stop-color="#63F656"/>
<stop offset="1" stop-color="#0CE2D1"/>
</linearGradient>
<linearGradient id="paint2_linear_550_27" x1="0" y1="0" x2="288" y2="288" gradientUnits="userSpaceOnUse">
<stop stop-color="#63F656"/>
<stop offset="1" stop-color="#0CE2D1"/>
</linearGradient>
<linearGradient id="paint3_linear_550_27" x1="0" y1="0" x2="288" y2="288" gradientUnits="userSpaceOnUse">
<stop stop-color="#63F656"/>
<stop offset="1" stop-color="#0CE2D1"/>
</linearGradient>
</defs>
</svg>
