<svg width="202" height="200" viewBox="0 0 202 200" fill="none" xmlns="http://www.w3.org/2000/svg">
<path d="M95.9972 0.0188074C78.6672 -0.415955 67.9292 6.75762 62.1755 14.2058C57.4669 20.3611 55.6409 27.3974 58.845 34.5938C63.6685 45.0396 72.9824 60.8741 78.3915 72.8072C79.8501 76.1823 77.6336 78.5964 74.3031 77.0289C59.9246 70.9537 48.6698 64.2606 36.2781 59.5355C22.3245 53.9751 9.772 62.2127 3.66227 78.0472C-3.95191 97.806 0.389209 119.51 15.9162 124.921C22.0144 127.599 31.2938 124.304 56.8697 120.539C61.5783 119.796 63.9556 119.453 68.8135 118.64C72.8331 117.851 73.6714 121.718 71.0645 124.407C61.1419 135.058 53.7919 142.083 44.5009 153.021C32.8442 164.954 36.8523 180.239 51.4605 191.429C66.62 202.035 85.9253 202.87 95.8594 193.534C103.52 186.612 101.682 173.867 106.138 155.881C112.248 134.589 130.049 112.05 158.381 104.064C170.841 100.38 179.34 100.437 187.574 97.4284C199.862 93.1723 204.594 80.5299 200.632 66.2972C195.28 48.4376 180.89 31.2645 164.353 33.3468C157.014 34.2277 151.995 41.6187 147.826 45.4629L123.583 69.0316C120.505 72.3266 117.967 70.1986 118.851 66.034C122.17 48.6321 122.733 41.6072 124.605 24.2511C125.604 10.8535 115.096 0.545098 95.9972 0.0188074Z" fill="url(#paint0_linear_811_20)"/>
<path d="M145.149 139.154C130.334 151.796 126.923 170.72 136.1 181.898C145.551 192.435 163.823 188.74 177.914 175.285C191.099 162.368 194.245 146.797 186.516 136.191C177.868 125.196 160.217 126.821 145.149 139.154Z" fill="url(#paint1_linear_811_20)"/>
<defs>
<linearGradient id="paint0_linear_811_20" x1="101" y1="0" x2="101" y2="200" gradientUnits="userSpaceOnUse">
<stop stop-color="#98D730"/>
<stop offset="1" stop-color="#147904"/>
</linearGradient>
<linearGradient id="paint1_linear_811_20" x1="101" y1="0" x2="101" y2="200" gradientUnits="userSpaceOnUse">
<stop stop-color="#98D730"/>
<stop offset="1" stop-color="#147904"/>
</linearGradient>
</defs>
</svg>
