<svg width="677" height="256" viewBox="0 0 677 256" fill="none" xmlns="http://www.w3.org/2000/svg">
<path fill-rule="evenodd" clip-rule="evenodd" d="M168.15 87.85C206.617 126.317 206.617 188.683 168.15 227.15C129.683 265.617 67.3166 265.617 28.85 227.15C-9.61666 188.683 -9.61666 126.317 28.85 87.85C67.3166 49.3833 129.683 49.3833 168.15 87.85ZM148.648 107.352C120.952 79.656 76.048 79.656 48.352 107.352C20.656 135.048 20.656 179.952 48.352 207.648C76.048 235.344 120.952 235.344 148.648 207.648C176.344 179.952 176.344 135.048 148.648 107.352Z" fill="black"/>
<path d="M283.832 256C267.643 256 253.801 253.4 242.304 248.199C231.043 242.763 222.245 235.317 215.91 225.862C209.575 216.406 205.938 205.769 205 193.95L229.283 192.177C230.691 204.705 235.852 214.752 244.768 222.316C253.918 229.88 266.94 233.662 283.832 233.662C298.613 233.662 310.109 231.18 318.321 226.216C326.533 221.252 330.639 213.57 330.639 203.169C330.639 197.496 329.348 192.768 326.767 188.986C324.421 184.968 319.494 181.54 311.986 178.704C304.479 175.631 293.217 172.794 278.201 170.194C260.605 166.885 246.88 162.984 237.026 158.493C227.172 153.765 220.25 147.974 216.262 141.119C212.273 134.028 210.279 125.636 210.279 115.945C210.279 99.1616 216.262 85.5697 228.227 75.169C240.193 64.7682 256.851 59.5679 278.201 59.5679C292.748 59.5679 305.065 62.2862 315.154 67.723C325.477 73.1597 333.571 80.3693 339.437 89.3518C345.302 98.0979 349.174 107.789 351.051 118.427L326.767 120.554C325.36 113.226 322.662 106.726 318.673 101.053C314.685 95.1431 309.288 90.5337 302.484 87.2244C295.68 83.6787 287.469 81.9058 277.849 81.9058C263.772 81.9058 252.98 84.9788 245.472 91.1247C238.199 97.0342 234.562 104.953 234.562 114.881C234.562 121.736 236.087 127.409 239.137 131.9C242.187 136.155 247.231 139.701 254.27 142.537C261.309 145.138 271.045 147.501 283.48 149.629C302.015 152.702 316.444 156.602 326.767 161.33C337.325 165.821 344.716 171.494 348.939 178.349C353.162 184.968 355.274 193.123 355.274 202.814C355.274 214.161 352.224 223.852 346.124 231.889C340.023 239.69 331.577 245.717 320.785 249.972C310.227 253.991 297.909 256 283.832 256Z" fill="#FB5130"/>
<path d="M422.654 256C403.885 256 388.869 251.509 377.607 242.526C366.346 233.307 360.715 220.898 360.715 205.296C360.715 189.695 365.642 177.404 375.496 168.421C385.35 159.439 399.779 153.175 418.783 149.629L487.761 136.51C487.761 117.836 483.773 104.126 475.796 95.3795C467.819 86.397 455.736 81.9058 439.547 81.9058C425.235 81.9058 413.856 85.3333 405.41 92.1884C396.964 99.0434 391.333 108.735 388.517 121.263L363.882 119.136C367.401 100.934 375.613 86.5152 388.517 75.8781C401.656 65.0046 418.666 59.5679 439.547 59.5679C462.774 59.5679 480.488 66.1865 492.688 79.4238C504.888 92.6611 510.989 111.572 510.989 136.155V214.515C510.989 220.898 511.927 225.271 513.804 227.634C515.916 229.762 519.2 230.825 523.658 230.825H529.289V251.745C528.35 251.982 526.943 252.1 525.066 252.1C523.423 252.336 521.664 252.454 519.787 252.454C512.514 252.454 506.413 251.154 501.486 248.554C496.794 245.954 493.275 241.699 490.929 235.789C488.817 229.88 487.761 221.725 487.761 211.324L490.577 211.679C488.465 219.952 484.125 227.516 477.555 234.371C471.221 240.99 463.243 246.308 453.624 250.327C444.005 254.109 433.681 256 422.654 256ZM424.766 235.08C437.67 235.08 448.814 232.48 458.199 227.28C467.584 222.079 474.857 215.106 480.019 206.36C485.18 197.378 487.761 187.331 487.761 176.222V157.429L423.71 169.485C410.337 172.085 400.483 176.103 394.148 181.54C388.048 186.977 384.998 194.187 384.998 203.169C384.998 213.333 388.517 221.252 395.556 226.925C402.594 232.362 412.331 235.08 424.766 235.08Z" fill="#FB5130"/>
<path d="M569.079 251.745C558.521 251.745 550.192 249.145 544.092 243.945C537.992 238.508 534.942 230.116 534.942 218.77V0H558.169V216.997C558.169 221.488 559.342 224.916 561.688 227.28C564.034 229.644 567.554 230.825 572.246 230.825H587.027V251.745H569.079Z" fill="#FB5130"/>
<path d="M650.253 251.745C635.003 251.745 623.741 248.199 616.468 241.108C609.195 233.78 605.558 222.67 605.558 207.778V19.856H628.786V207.069C628.786 215.815 630.663 221.961 634.417 225.507C638.405 229.053 644.388 230.825 652.365 230.825H677V251.745H650.253ZM576.348 84.7424V63.8227H677V84.7424H576.348Z" fill="#FB5130"/>
</svg>
